<!-- <svg class="icon icon-instagram" viewBox="0 0 20 20"><path fill="currentColor" fill-rule="evenodd" d="M13.23 3.492c-.84-.037-1.096-.046-3.23-.046-2.144 0-2.39.01-3.238.055-.776.027-1.195.164-1.487.273a2.4 2.4 0 0 0-.912.593 2.5 2.5 0 0 0-.602.922c-.11.282-.238.702-.274 1.486-.046.84-.046 1.095-.046 3.23s.01 2.39.046 3.229c.004.51.097 1.016.274 1.495.145.365.319.639.602.913.282.282.538.456.92.602.474.176.974.268 1.479.273.848.046 1.103.046 3.238.046s2.39-.01 3.23-.046c.784-.036 1.203-.164 1.486-.273.374-.146.648-.329.921-.602.283-.283.447-.548.602-.922.177-.476.27-.979.274-1.486.037-.84.046-1.095.046-3.23s-.01-2.39-.055-3.229c-.027-.784-.164-1.204-.274-1.495a2.4 2.4 0 0 0-.593-.913 2.6 2.6 0 0 0-.92-.602c-.284-.11-.703-.237-1.488-.273ZM6.697 2.05c.857-.036 1.131-.045 3.302-.045a63 63 0 0 1 3.302.045c.664.014 1.321.14 1.943.374a4 4 0 0 1 1.414.922c.41.397.728.88.93 1.414.23.622.354 1.279.365 1.942C18 7.56 18 7.824 18 10.005c0 2.17-.01 2.444-.046 3.292-.036.858-.173 1.442-.374 1.943-.2.53-.474.976-.92 1.423a3.9 3.9 0 0 1-1.415.922c-.51.191-1.095.337-1.943.374-.857.036-1.122.045-3.302.045-2.171 0-2.445-.009-3.302-.055-.849-.027-1.432-.164-1.943-.364a4.15 4.15 0 0 1-1.414-.922 4.1 4.1 0 0 1-.93-1.423c-.183-.51-.329-1.085-.365-1.943C2.009 12.45 2 12.167 2 10.004c0-2.161 0-2.435.055-3.302.027-.848.164-1.432.365-1.942a4.4 4.4 0 0 1 .92-1.414 4.2 4.2 0 0 1 1.415-.93c.51-.183 1.094-.33 1.943-.366Zm.427 4.806a4.105 4.105 0 1 1 5.805 5.805 4.105 4.105 0 0 1-5.805-5.805m1.882 5.371a2.668 2.668 0 1 0 2.042-4.93 2.668 2.668 0 0 0-2.042 4.93m5.922-5.942a.958.958 0 1 1-1.355-1.355.958.958 0 0 1 1.355 1.355" clip-rule="evenodd"/></svg> -->

<svg width="18" height="18" viewBox="0 0 18 18" fill="none" xmlns="http://www.w3.org/2000/svg">
<path d="M9.06213 0.600098C6.78081 0.600098 6.49475 0.609767 5.5988 0.650647C4.70472 0.69146 4.09409 0.833438 3.55976 1.0411C3.00738 1.25577 2.53894 1.543 2.07195 2.00998C1.60497 2.47696 1.31775 2.9454 1.10308 3.49778C0.895416 4.03208 0.753438 4.64271 0.712625 5.53679C0.671746 6.43274 0.662109 6.7188 0.662109 9.00012C0.662109 11.2814 0.671746 11.5675 0.712625 12.4634C0.753438 13.3575 0.895416 13.9681 1.10308 14.5024C1.31775 15.0548 1.60497 15.5232 2.07195 15.9903C2.53894 16.4572 3.00738 16.7445 3.55976 16.9591C4.09409 17.1668 4.70472 17.3088 5.5988 17.3496C6.49475 17.3904 6.78081 17.4001 9.06213 17.4001C11.3434 17.4001 11.6295 17.3904 12.5254 17.3496C13.4195 17.3088 14.0301 17.1668 14.5644 16.9591C15.1168 16.7445 15.5853 16.4572 16.0523 15.9903C16.5192 15.5232 16.8065 15.0548 17.0211 14.5024C17.2288 13.9681 17.3708 13.3575 17.4116 12.4634C17.4524 11.5675 17.4621 11.2814 17.4621 9.00012C17.4621 6.7188 17.4524 6.43274 17.4116 5.53679C17.3708 4.64271 17.2288 4.03208 17.0211 3.49778C16.8065 2.9454 16.5192 2.47696 16.0523 2.00998C15.5853 1.543 15.1168 1.25577 14.5644 1.0411C14.0301 0.833438 13.4195 0.69146 12.5254 0.650647C11.6295 0.609767 11.3434 0.600098 9.06213 0.600098ZM9.06213 2.11364C11.305 2.11364 11.5707 2.12218 12.4564 2.16259C13.2754 2.19997 13.7202 2.33681 14.0162 2.45182C14.4083 2.6042 14.6881 2.78625 14.982 3.08018C15.276 3.37411 15.458 3.65396 15.6104 4.04602C15.7254 4.34201 15.8623 4.78679 15.8996 5.60578C15.94 6.49152 15.9486 6.75721 15.9486 9.00012C15.9486 11.243 15.94 11.5087 15.8996 12.3944C15.8623 13.2134 15.7254 13.6582 15.6104 13.9542C15.458 14.3463 15.276 14.6261 14.982 14.92C14.6881 15.214 14.4083 15.396 14.0162 15.5484C13.7202 15.6634 13.2754 15.8003 12.4564 15.8376C11.5708 15.878 11.3052 15.8866 9.06213 15.8866C6.81905 15.8866 6.55344 15.878 5.66779 15.8376C4.8488 15.8003 4.40402 15.6634 4.10803 15.5484C3.71594 15.396 3.43612 15.214 3.14216 14.92C2.84823 14.6261 2.66618 14.3463 2.51383 13.9542C2.39879 13.6582 2.26195 13.2134 2.22457 12.3944C2.18416 11.5087 2.17562 11.243 2.17562 9.00012C2.17562 6.75721 2.18416 6.49152 2.22457 5.60578C2.26195 4.78679 2.39879 4.34201 2.51383 4.04602C2.66618 3.65396 2.84823 3.37411 3.14216 3.08018C3.43612 2.78625 3.71594 2.6042 4.10803 2.45182C4.40402 2.33681 4.8488 2.19997 5.66779 2.16259C6.55353 2.12218 6.81922 2.11364 9.06213 2.11364Z" fill="#67645E"/>
<path d="M9.06353 11.8005C7.51711 11.8005 6.26351 10.5469 6.26351 9.00053C6.26351 7.45411 7.51711 6.20052 9.06353 6.20052C10.6099 6.20052 11.8635 7.45411 11.8635 9.00053C11.8635 10.5469 10.6099 11.8005 9.06353 11.8005ZM9.06353 4.68701C6.68121 4.68701 4.75 6.61822 4.75 9.00053C4.75 11.3828 6.68121 13.314 9.06353 13.314C11.4458 13.314 13.377 11.3828 13.377 9.00053C13.377 6.61822 11.4458 4.68701 9.06353 4.68701Z" fill="#67645E"/>
<path d="M14.5519 4.51616C14.5519 5.0728 14.1006 5.52401 13.544 5.52401C12.9874 5.52401 12.5361 5.0728 12.5361 4.51616C12.5361 3.95952 12.9874 3.5083 13.544 3.5083C14.1006 3.5083 14.5519 3.95952 14.5519 4.51616Z" fill="#67645E"/>
</svg>
