<!-- <svg class="icon icon-tiktok" viewBox="0 0 20 20"><path fill="currentColor" d="M10.511 1.705h2.74s-.157 3.51 3.795 3.768v2.711s-2.114.129-3.796-1.158l.028 5.606A5.073 5.073 0 1 1 8.213 7.56h.708v2.785a2.298 2.298 0 1 0 1.618 2.205z"/></svg> -->

<svg width="18" height="18" viewBox="0 0 18 18" fill="none" xmlns="http://www.w3.org/2000/svg">
<path d="M9.58371 0.600098H12.386C12.4161 0.722499 12.4395 0.846454 12.4561 0.971407C12.5415 1.94597 12.9873 2.85364 13.7064 3.51699C14.4255 4.18034 15.3661 4.55167 16.3443 4.5584V7.1996C16.2133 7.24221 16.0757 7.26118 15.938 7.25564C15.2862 7.18365 14.6401 7.0666 14.0044 6.90535C13.4558 6.69422 12.9221 6.44611 12.4071 6.16273V6.51303C12.4071 7.91419 12.4071 9.3574 12.4071 10.7796C12.4141 11.3584 12.3766 11.9369 12.295 12.51C12.1721 13.4666 11.8062 14.3758 11.2323 15.1509C10.6583 15.926 9.89538 16.5411 9.01624 16.9377C8.49961 17.1277 7.9706 17.2822 7.43292 17.4001H6.45911C6.41831 17.3807 6.37616 17.3643 6.333 17.3511C5.346 17.2255 4.41886 16.8085 3.67008 16.1534C2.92131 15.4982 2.38492 14.6346 2.1295 13.673C2.01191 13.2545 1.92296 12.8285 1.86328 12.3979V11.5782C1.94035 11.1929 1.99639 10.8076 2.10849 10.4293C2.42423 9.41909 3.03426 8.52609 3.86048 7.86461C4.68671 7.20313 5.69154 6.80326 6.74635 6.71619C7.06161 6.66715 7.37687 6.65314 7.71315 6.62512C7.71315 7.53588 7.71315 8.37658 7.71315 9.22428C7.71315 9.42745 7.60807 9.45548 7.43993 9.50452C6.90278 9.62765 6.37581 9.79159 5.86361 9.99493C5.46913 10.1436 5.1302 10.4105 4.89318 10.7591C4.65617 11.1077 4.53265 11.521 4.53951 11.9425C4.5098 12.4205 4.62152 12.8967 4.86074 13.3116C5.09996 13.7265 5.45607 14.0617 5.88463 14.2755C6.27652 14.5178 6.73172 14.6379 7.19216 14.6204C7.65259 14.603 8.09738 14.4487 8.46978 14.1774C8.74862 13.9778 8.98248 13.7219 9.15625 13.4262C9.33002 13.1305 9.43985 12.8017 9.47863 12.461C9.56238 11.7637 9.5975 11.0614 9.58371 10.3592C9.58371 7.24864 9.58371 4.13571 9.58371 1.02045C9.60473 0.873326 9.59072 0.740214 9.58371 0.600098Z" fill="#67645E"/>
</svg>
