<svg width="104" height="64" viewBox="0 0 104 64" fill="none" xmlns="http://www.w3.org/2000/svg">
<path d="M25.812 27L25.83 14.886C25.83 13.482 25.47 12.39 24.75 11.61C24.03 10.818 23.082 10.422 21.906 10.422C21.186 10.422 20.526 10.59 19.926 10.926C19.338 11.25 18.858 11.742 18.486 12.402C18.126 13.05 17.946 13.866 17.946 14.85L16.128 13.932C16.104 12.564 16.392 11.364 16.992 10.332C17.604 9.3 18.432 8.502 19.476 7.938C20.52 7.362 21.69 7.074 22.986 7.074C25.086 7.074 26.712 7.704 27.864 8.964C29.016 10.224 29.592 11.898 29.592 13.986L29.574 27H25.812ZM2.502 27V7.56H5.85V13.176H6.282V27H2.502ZM14.166 27L14.184 14.958C14.184 13.542 13.824 12.432 13.104 11.628C12.396 10.824 11.442 10.422 10.242 10.422C9.054 10.422 8.094 10.83 7.362 11.646C6.642 12.462 6.282 13.53 6.282 14.85L4.482 13.698C4.482 12.426 4.788 11.292 5.4 10.296C6.012 9.3 6.84 8.514 7.884 7.938C8.928 7.362 10.11 7.074 11.43 7.074C12.81 7.074 13.986 7.368 14.958 7.956C15.93 8.532 16.668 9.342 17.172 10.386C17.688 11.43 17.946 12.642 17.946 14.022L17.928 27H14.166ZM42.642 27.54C40.71 27.54 39.012 27.12 37.548 26.28C36.096 25.428 34.962 24.246 34.146 22.734C33.342 21.21 32.94 19.446 32.94 17.442C32.94 15.318 33.336 13.476 34.128 11.916C34.932 10.356 36.048 9.15 37.476 8.298C38.904 7.446 40.566 7.02 42.462 7.02C44.442 7.02 46.128 7.482 47.52 8.406C48.912 9.318 49.95 10.62 50.634 12.312C51.33 14.004 51.606 16.014 51.462 18.342H47.7V16.974C47.676 14.718 47.244 13.05 46.404 11.97C45.576 10.89 44.31 10.35 42.606 10.35C40.722 10.35 39.306 10.944 38.358 12.132C37.41 13.32 36.936 15.036 36.936 17.28C36.936 19.416 37.41 21.072 38.358 22.248C39.306 23.412 40.674 23.994 42.462 23.994C43.638 23.994 44.652 23.73 45.504 23.202C46.368 22.662 47.04 21.894 47.52 20.898L51.21 22.068C50.454 23.808 49.308 25.158 47.772 26.118C46.236 27.066 44.526 27.54 42.642 27.54ZM35.712 18.342V15.408H49.59V18.342H35.712ZM55.8605 27V0.539999H59.6225V27H55.8605ZM70.5178 27.54C69.0778 27.54 67.8718 27.276 66.8998 26.748C65.9278 26.208 65.1898 25.5 64.6858 24.624C64.1938 23.736 63.9478 22.764 63.9478 21.708C63.9478 20.724 64.1218 19.86 64.4698 19.116C64.8178 18.372 65.3338 17.742 66.0178 17.226C66.7018 16.698 67.5418 16.272 68.5378 15.948C69.4018 15.696 70.3798 15.474 71.4718 15.282C72.5638 15.09 73.7098 14.91 74.9098 14.742C76.1218 14.574 77.3218 14.406 78.5098 14.238L77.1418 14.994C77.1658 13.47 76.8418 12.342 76.1698 11.61C75.5098 10.866 74.3698 10.494 72.7498 10.494C71.7298 10.494 70.7938 10.734 69.9418 11.214C69.0898 11.682 68.4958 12.462 68.1598 13.554L64.6498 12.474C65.1298 10.806 66.0418 9.48 67.3858 8.496C68.7418 7.512 70.5418 7.02 72.7858 7.02C74.5258 7.02 76.0378 7.32 77.3218 7.92C78.6178 8.508 79.5658 9.444 80.1658 10.728C80.4778 11.364 80.6698 12.036 80.7418 12.744C80.8138 13.452 80.8498 14.214 80.8498 15.03V27H77.5198V22.554L78.1678 23.13C77.3638 24.618 76.3378 25.728 75.0898 26.46C73.8538 27.18 72.3298 27.54 70.5178 27.54ZM71.1838 24.462C72.2518 24.462 73.1698 24.276 73.9378 23.904C74.7058 23.52 75.3238 23.034 75.7918 22.446C76.2598 21.858 76.5658 21.246 76.7098 20.61C76.9138 20.034 77.0278 19.386 77.0518 18.666C77.0878 17.946 77.1058 17.37 77.1058 16.938L78.3298 17.388C77.1418 17.568 76.0618 17.73 75.0898 17.874C74.1178 18.018 73.2358 18.162 72.4438 18.306C71.6638 18.438 70.9678 18.6 70.3558 18.792C69.8398 18.972 69.3778 19.188 68.9698 19.44C68.5738 19.692 68.2558 19.998 68.0158 20.358C67.7878 20.718 67.6738 21.156 67.6738 21.672C67.6738 22.176 67.7998 22.644 68.0518 23.076C68.3038 23.496 68.6878 23.832 69.2038 24.084C69.7198 24.336 70.3798 24.462 71.1838 24.462ZM85.1639 17.154V14.13H95.9639V17.154H85.1639ZM13.644 63C12.42 63.24 11.22 63.342 10.044 63.306C8.868 63.27 7.818 63.042 6.894 62.622C5.97 62.202 5.274 61.542 4.806 60.642C4.386 59.838 4.158 59.022 4.122 58.194C4.098 57.354 4.086 56.406 4.086 55.35V38.16H7.866V55.17C7.866 55.95 7.872 56.628 7.884 57.204C7.908 57.78 8.034 58.266 8.262 58.662C8.694 59.406 9.378 59.832 10.314 59.94C11.262 60.036 12.372 59.994 13.644 59.814V63ZM0.36 46.584V43.56H13.644V46.584H0.36ZM25.3058 63.54C23.3618 63.54 21.6758 63.102 20.2478 62.226C18.8198 61.35 17.7158 60.144 16.9358 58.608C16.1678 57.06 15.7838 55.278 15.7838 53.262C15.7838 51.234 16.1798 49.452 16.9718 47.916C17.7638 46.368 18.8738 45.168 20.3018 44.316C21.7298 43.452 23.3978 43.02 25.3058 43.02C27.2498 43.02 28.9358 43.458 30.3638 44.334C31.7918 45.21 32.8958 46.416 33.6758 47.952C34.4558 49.488 34.8458 51.258 34.8458 53.262C34.8458 55.29 34.4498 57.078 33.6578 58.626C32.8778 60.162 31.7738 61.368 30.3458 62.244C28.9178 63.108 27.2378 63.54 25.3058 63.54ZM25.3058 59.994C27.1658 59.994 28.5518 59.37 29.4638 58.122C30.3878 56.862 30.8498 55.242 30.8498 53.262C30.8498 51.234 30.3818 49.614 29.4458 48.402C28.5218 47.178 27.1418 46.566 25.3058 46.566C24.0458 46.566 23.0078 46.854 22.1918 47.43C21.3758 47.994 20.7698 48.78 20.3738 49.788C19.9778 50.784 19.7798 51.942 19.7798 53.262C19.7798 55.302 20.2478 56.934 21.1838 58.158C22.1198 59.382 23.4938 59.994 25.3058 59.994ZM52.4453 63V53.442C52.4453 52.686 52.3793 51.912 52.2473 51.12C52.1273 50.316 51.8873 49.572 51.5273 48.888C51.1793 48.204 50.6813 47.652 50.0333 47.232C49.3973 46.812 48.5633 46.602 47.5312 46.602C46.8593 46.602 46.2233 46.716 45.6233 46.944C45.0233 47.16 44.4953 47.514 44.0393 48.006C43.5953 48.498 43.2413 49.146 42.9773 49.95C42.7253 50.754 42.5993 51.732 42.5993 52.884L40.2593 52.002C40.2593 50.238 40.5893 48.684 41.2493 47.34C41.9093 45.984 42.8573 44.928 44.0933 44.172C45.3293 43.416 46.8233 43.038 48.5753 43.038C49.9193 43.038 51.0473 43.254 51.9593 43.686C52.8713 44.118 53.6093 44.688 54.1733 45.396C54.7493 46.092 55.1873 46.854 55.4873 47.682C55.7873 48.51 55.9913 49.32 56.0993 50.112C56.2073 50.904 56.2613 51.6 56.2613 52.2V63H52.4453ZM38.7833 63V43.56H42.1493V49.176H42.5993V63H38.7833ZM61.3097 40.374V36.72H65.0717V40.374H61.3097ZM61.3097 63V43.56H65.0717V63H61.3097ZM78.793 63.54C76.801 63.54 75.109 63.096 73.717 62.208C72.325 61.32 71.257 60.102 70.513 58.554C69.781 57.006 69.409 55.248 69.397 53.28C69.409 51.276 69.793 49.506 70.549 47.97C71.305 46.422 72.385 45.21 73.789 44.334C75.193 43.458 76.879 43.02 78.847 43.02C80.971 43.02 82.783 43.548 84.283 44.604C85.795 45.66 86.791 47.106 87.271 48.942L83.527 50.022C83.155 48.93 82.543 48.084 81.691 47.484C80.851 46.872 79.885 46.566 78.793 46.566C77.557 46.566 76.543 46.86 75.751 47.448C74.959 48.024 74.371 48.816 73.987 49.824C73.603 50.832 73.405 51.984 73.393 53.28C73.405 55.284 73.861 56.904 74.761 58.14C75.673 59.376 77.017 59.994 78.793 59.994C80.005 59.994 80.983 59.718 81.727 59.166C82.483 58.602 83.059 57.798 83.455 56.754L87.271 57.654C86.635 59.55 85.585 61.008 84.121 62.028C82.657 63.036 80.881 63.54 78.793 63.54Z" fill="white"/>
<path d="M96.42 59V54.68H98.244C98.286 54.68 98.342 54.682 98.412 54.686C98.484 54.688 98.548 54.694 98.604 54.704C98.862 54.744 99.073 54.829 99.237 54.959C99.403 55.089 99.525 55.253 99.603 55.451C99.681 55.647 99.72 55.866 99.72 56.108C99.72 56.47 99.63 56.78 99.45 57.038C99.27 57.294 98.988 57.452 98.604 57.512L98.244 57.536H97.236V59H96.42ZM98.856 59L98.004 57.242L98.844 57.08L99.78 59H98.856ZM97.236 56.774H98.208C98.25 56.774 98.296 56.772 98.346 56.768C98.396 56.764 98.442 56.756 98.484 56.744C98.594 56.714 98.679 56.664 98.739 56.594C98.799 56.522 98.84 56.443 98.862 56.357C98.886 56.269 98.898 56.186 98.898 56.108C98.898 56.03 98.886 55.948 98.862 55.862C98.84 55.774 98.799 55.695 98.739 55.625C98.679 55.553 98.594 55.502 98.484 55.472C98.442 55.46 98.396 55.452 98.346 55.448C98.296 55.444 98.25 55.442 98.208 55.442H97.236V56.774Z" fill="white"/>
<circle cx="98" cy="57" r="5.5" stroke="white"/>
</svg>
